<svg id="Layer_1" data-name="Layer 1" xmlns="http://www.w3.org/2000/svg" viewBox="0 0 88.91 31.99"><title>car</title><path d="M68.1,50.6a1.48,1.48,0,0,1,.23.77c0,.25.13.36.41.37,4.43.11,8.85.45,13.28.72a10.9,10.9,0,0,0,1.71,0,3.25,3.25,0,0,1,2.77,1c.25.26.35.27.55,0a4.29,4.29,0,0,1,1.76-1.66,2.91,2.91,0,0,1,3.79.9,5.35,5.35,0,0,1,.7,1.14,1.35,1.35,0,0,0,.79.73A1.76,1.76,0,0,1,94.83,56c0,.15-.17.17-.26.24s-.18.1-.16.2.14.13.23.12c.38,0,.41.22.42.5a4.8,4.8,0,0,1-.22,1.55A4.8,4.8,0,0,0,94.53,61c0,.18-.05.24-.21.29a1.13,1.13,0,0,0-.61.4h1.36a3.2,3.2,0,0,1-2,1.09.94.94,0,0,0-.78.47,4.07,4.07,0,0,1-.9,1,2.66,2.66,0,0,1-1.47.61,18.58,18.58,0,0,1-3.61-.06,2.8,2.8,0,0,1-1.94-1.37.61.61,0,0,0-.57-.28l-15,.17a2.23,2.23,0,0,0-.8.19,6.91,6.91,0,0,1-5.36.07,1.08,1.08,0,0,0-.5-.07l-8.33.4a.81.81,0,0,0-.81.54,5.82,5.82,0,0,1-1.39,1.83A4.28,4.28,0,0,1,49,67.3a14.6,14.6,0,0,1-4.88-.19,5.33,5.33,0,0,1-3.42-2.72.94.94,0,0,0-1-.51c-.79,0-1.58,0-2.36.1A33,33,0,0,1,32,63.83c-1.17-.08-2.35-.06-3.52-.08a.46.46,0,0,0-.41.15,4.66,4.66,0,0,1-3.56,1.79,16.28,16.28,0,0,1-4.6-.34,4.62,4.62,0,0,1-3.1-2.58.66.66,0,0,0-.49-.41c-1.71-.4-3.42-.83-5.13-1.22a4.82,4.82,0,0,0-1-.07c-.93,0-1.85,0-2.78,0-.39,0-.62-.12-.68-.55l1.85.19h0c.72.51.46-.17.47-.42s.17-.84-.07-1.06-.66-.08-1,0c-.56.06-1.1,0-1.67,0,0-.27.22-.27.4-.27l5.37.18a.63.63,0,0,1,.65.49c.05.18.13.35.18.53a.69.69,0,0,0,.63.51,2.21,2.21,0,0,0,2.17-.73,2.12,2.12,0,0,1,1.83-.69c2.28.15,4.56.24,6.85.38a2.69,2.69,0,0,1,2,.64,5.48,5.48,0,0,0-2.08-.33c-.21,0-.46-.11-.59.13s.16.3.22.47,0,.05,0,.08c-.3-.21-.44-.65-.83-.7a12,12,0,0,0-1.66-.1c-.27,0-.3.18-.14.37s.51.54.75.82a1.29,1.29,0,0,0,1.1.46c1.26,0,2.52,0,3.78,0,.16,0,.34.07.49-.1-.3-.41-.77-.66-1-1.09A9.47,9.47,0,0,1,28,61.63a1.16,1.16,0,0,0,.89.39c.81,0,1.62,0,2.36,0a9.58,9.58,0,0,1-3.4-1.87l.07,0A9.14,9.14,0,0,0,32,61.79q3.68.82,7.34,1.73a1.69,1.69,0,0,0,1.54-.34,3.4,3.4,0,0,0,1-1.16l-7.56-1.61v-.07l2.9.52,4.47.79c.17,0,.37.13.36-.21a9,9,0,0,1,1.07-4.17c.22-.47.21-.46-.31-.54-3.7-.53-7.41-1-11.09-1.61-1.12-.2-2.26-.35-3.4-.44a3.47,3.47,0,0,1-.59-.12c1.91,0,3.81.21,5.71.44,2.88.35,5.77.66,8.65,1a.65.65,0,0,0,.69-.31A28.36,28.36,0,0,1,45,52.55a5.62,5.62,0,0,1,5.36-1.83,6,6,0,0,1,2.78,1.5c.12.11.21.28.41.26.29.46.6.47,1,.08a1.1,1.1,0,0,1,.51-.19A6.79,6.79,0,0,1,57,52.27l11,.43c.17,0,.42.13.42-.24s-.17-.34-.41-.35c-1.7-.06-3.4-.16-5.09-.19a33.68,33.68,0,0,1-5.08-.26,13.36,13.36,0,0,0-3.51-.16,6.3,6.3,0,0,1-1.13.21c-.23-.55-.23-.57.39-.66a12.86,12.86,0,0,1,4,.06,78.39,78.39,0,0,0,7.88.49c.83.06,1.66.06,2.49.11.29,0,.4-.05.34-.35s-.1-.51-.14-.76Zm23.44,8.88c-.45,0-.72-.42-1.09-.61-.1-.06-.25-.11-.24-.26s.19-.18.31-.23a6,6,0,0,1,1.16-.44c.27,0,.1-.37.37-.38a1.11,1.11,0,0,0,.73-.44c.07-.07-.08-.17-.15-.18-.33-.06-.53.17-.74.38a3,3,0,0,1-1.15.52c-.29.12-.24-.32-.49-.34-.08.2,0,.45-.21.61-.47.3-.48.58-.06.89.09.07.18.14.14.27a.22.22,0,0,1-.27.13,1.07,1.07,0,0,1-.35-.11c-.11-.06-.23-.16-.3,0s.23,0,.23.2c-.29.14-.29.14-.45-.14-.05-.1-.09-.21-.23-.14a.14.14,0,0,0-.07.19,3.23,3.23,0,0,1-.07,2.51c-.07.24-.16.44-.48.45.27.33.44.32.55,0A4.06,4.06,0,0,0,89.12,60c0-.1,0-.19.12-.2a.16.16,0,0,1,.19.16,12.63,12.63,0,0,0,.21,1.38c0,.09-.14.21,0,.28a.26.26,0,0,0,.22,0c.12-.08,0-.19,0-.29a4.4,4.4,0,0,1-.07-1.53,19,19,0,0,1,1.4,1.42c.24.26.25.26.44-.08a8.67,8.67,0,0,1-1.25-1.22.31.31,0,0,1,0-.46c.12-.14.26-.07.37,0s.49.38.75.54.53.14.59-.28a6.15,6.15,0,0,0,0-1.43c0-.42-.23-.36-.49-.23s-.4,1-.16,1.46Zm-7.89,2.67c-.13-.32-.35-.28-.54-.28l-3.43-.08c-4.26-.1-8.52-.24-12.78-.28-3.42,0-6.81.42-10.21.62a.82.82,0,0,0-.63.33C65.3,62.05,74.45,62.05,83.65,62.15Zm-30.29.06-.11-.06c-.24.46-.46.93-.71,1.39A4.46,4.46,0,0,1,50.8,65.4c-.27.14-.41.19-.48-.21a9.77,9.77,0,0,0-1.41-3.79c-.12-.18-.25-.41-.1-.6s.4,0,.6,0a28.06,28.06,0,0,1,3.22,1.41c.12.06.23.2.48.06-.24-.13-.42-.24-.61-.32-.91-.38-1.59-1.18-2.6-1.39a.45.45,0,0,1-.4-.6c.09-.38.37-.34.62-.29,1,.2,2,0,2.93.19.08,0,.18,0,.26,0s-.17-.12-.27-.14l-2.84-.4a1.6,1.6,0,0,1-.88-.22c-.21-.18-.38-.19-.48.11,0,.11-.21.13-.21.29a1,1,0,0,0,.16.08c.16.05.36.09.36.3s-.19.26-.36.3c-.36.08-.46.44-.51.68s-.21.2-.37.23-.22-.21-.44-.25a11.06,11.06,0,0,1,.85,4.8,4.51,4.51,0,0,1-2.63-2.27c.55,0,1.06.28,1.39-.22s-.11-.55-.35-.72-.54-.19-1.21.5a6,6,0,0,1-.8-2.24.32.32,0,0,1,.21-.41l1.51-.54c-.06.19-.33.14-.37.36a1.51,1.51,0,0,0,.63-.29c.12-.07.27-.17.2-.32s-.22,0-.33,0a8.57,8.57,0,0,1-1.61.55c-.48.07-.47.3-.42.62a7,7,0,0,0,2.35,4.44,3.56,3.56,0,0,0,3.69.6C52.16,65.08,52.75,63.62,53.37,62.21Zm18-3.41h-1c-.49,0-1,0-1.48,0-1.88-.12-3.76-.22-5.64-.4a28.91,28.91,0,0,1-4.81-.63.76.76,0,0,1-.56-.3c.32,0,.56,0,.81,0,3.92.19,7.83.4,11.73.8A2.77,2.77,0,0,0,72.21,58a7,7,0,0,0-1.09-.14c-2.42-.13-4.84-.33-7.25-.52Q60.94,57.1,58,56.9a2.57,2.57,0,0,0-1.61.31c-.22.14-.47.36-.42.61s.36.09.55.13l.14,0a125,125,0,0,0,14,1.12A.81.81,0,0,0,71.39,58.79ZM47,53.85c.16.5.31,1,.47,1.43.09.27.21.53-.4.49.31.18.44.46.65.35s.1-.37.05-.56c-.08-.34-.2-.68-.3-1-.29-.91-.2-1.08.74-1.29.09,0,.18-.09.28,0a.51.51,0,0,0,.8,0,.36.36,0,0,1,.35-.09,2.76,2.76,0,0,1,.74.26c.22.11.26.24.16.47a18.59,18.59,0,0,1-.89,1.73c-.47.79-1,1.52-1.59,2.31.26,0,.34-.23.47-.35.53-.47.61-1.33,1.38-1.59,0,0,0-.06,0-.08a19.1,19.1,0,0,1,.87-2c.06-.2.18-.15.31,0a6.16,6.16,0,0,1,1,1c.15.19.18.33,0,.51-.49.48-.79,1.11-1.43,1.49A8.28,8.28,0,0,0,49.34,58c-.18.17-.33.19-.58,0l.33.8c.76-.69,1.51-1.38,2.23-2.15.08.24.16.44.22.64a7.56,7.56,0,0,1,.35,1.91.32.32,0,0,0,.36.32c.27,0,.15-.21.15-.35a6.37,6.37,0,0,0-.71-2.52c-.07-.14-.2-.27,0-.46s.45-.57.68-.88a12.36,12.36,0,0,1,.86,1.55,4.69,4.69,0,0,0-.67-1.59c-1.73-3-5.08-3.07-7-.19a7,7,0,0,0-1.06,3.13,4.37,4.37,0,0,0,0,1.76,9.17,9.17,0,0,1,1-4.52c.32.55.62,1.07.93,1.58.06.1.15.24.29.09a.66.66,0,0,0,.09-.66c0-.07-.08-.11-.14-.06s0,.27,0,.4,0,0-.09.07l-.9-1.48a.23.23,0,0,1,0-.29A4.78,4.78,0,0,1,47,53.85ZM75,52.65c.22.18.34.48.69.49,2.64.09,5.27.38,7.91.25,1.11-.05,2.12.11,2.58,1.34.48-.66.47-.75-.15-1.18a3.42,3.42,0,0,0-2-.62,14.33,14.33,0,0,1-1.71,0c-1.73-.23-3.48-.24-5.22-.3C76.5,52.63,75.79,52.65,75,52.65ZM80.76,59a.53.53,0,0,0-.41-.18c-2.07-.33-4.16-.55-6.25-.73a1.16,1.16,0,0,0-.94.31,1,1,0,0,1-.79.39,1.51,1.51,0,0,0,1,.34h6.39A4.31,4.31,0,0,0,80.76,59Zm-6.83-6.08c-.31-.29-.43-.58-.8-.59-1.46,0-2.93-.12-4.39-.17-.14,0-.33-.06-.32.2s.05.35.31.36Zm-21,8.8a2.93,2.93,0,0,0,.28-1c0-.13,0-.34.16-.33s.11.23.09.34c0,.4-.11.79-.17,1.18a7.33,7.33,0,0,0,0-4.45l0,.58a4.15,4.15,0,0,0-.62-1.31c.08.43.22.83.29,1.25s.09.86.12,1.29c0,.14,0,.25.19.27s.28.12.29.33-.15.3-.35.33-.2,0-.19.16C53.1,60.82,52.95,61.22,52.95,61.74Zm36.42-4.8c1-.15,1.08-1.65,1-3.41-.41,0-.62.18-.55.63a5.51,5.51,0,0,1,0,.79c0,.1,0,.24.08.29s.16.25.15.42A1.5,1.5,0,0,1,89.36,56.94Zm-2.82,1.23a11.74,11.74,0,0,1,1.6-4.65A6.23,6.23,0,0,0,86.54,58.17Zm3.82,5.54a2,2,0,0,0,1.47-.77c.06-.07.16-.14.12-.23s-.17-.12-.27-.14-.28.06-.39.18a1.68,1.68,0,0,1-1,.57c-.15,0-.34,0-.29.26S90.23,63.68,90.36,63.71ZM89.92,62c0-.15,0-.28-.17-.29s-.33.05-.36.22a9.09,9.09,0,0,0-.17,1.14c0,.22.21.32.37.35s.15-.18.17-.3C89.82,62.77,89.87,62.39,89.92,62ZM87.58,56a6,6,0,0,0-.47,2.51c0,.19-.11.45.17.56a1.25,1.25,0,0,0,1.15-.29,3.81,3.81,0,0,0-.56,0c-.41.06-.56-.06-.55-.5A15.5,15.5,0,0,1,87.58,56Zm5.19,5.26c0-.1,0-.15-.1-.15s-.4-.09-.49.12-.24.53-.37.79.06.31.18.43.14.08.19,0A4.89,4.89,0,0,0,92.77,61.24Zm-2.84-4.07c.15.16.24.1.34,0a7.19,7.19,0,0,0,2.06-1.75,2.27,2.27,0,0,0,.16-.23.13.13,0,0,0-.05-.2.5.5,0,0,0-.4,0,.08.08,0,0,0,0,.14c.33.19,0,.32-.07.42A6.1,6.1,0,0,1,89.93,57.17Zm-43.16.08a2.19,2.19,0,0,0,.13,1c.05.23.2.14.31.06.39-.29.75-.62.64-1.18-.05-.29.18-.78-.14-.81s-.09.53-.08.81a1.07,1.07,0,0,1-.54,1A3.3,3.3,0,0,0,46.76,57.25Zm45.31,2.86.22.23c.67.58.68.58.83-.3,0-.14.21-.38-.09-.44s-.47,0-.47.34S92.43,60.31,92.07,60.11Zm1.09-2.88c-.58.12-.5.55-.49,1s.28.28.45.3.12-.2.13-.31A2.29,2.29,0,0,0,93.17,57.23ZM50.52,64a2.83,2.83,0,0,0,1.19-1.27c.05-.1.09-.21-.05-.27s-.25-.05-.3.11A4.23,4.23,0,0,1,50.52,64Zm-5.62-5c-.11.15-.1.35.1.4s.3-.12.35-.26a.73.73,0,0,0-.15-.81c-.09-.1-.24-.1-.23,0S44.77,58.82,44.91,59.07Zm7.42,1.67c.07-.23,0-.34-.17-.31-.46.06-.26.47-.35.72s0,.39.19.35C52.49,61.41,52.16,60.93,52.32,60.74Zm-34.75.42a5,5,0,0,0,.15-1.44c0-.08,0-.15-.13-.15s-.16.08-.15.18A4.62,4.62,0,0,0,17.57,61.16Zm29.33-2.1s.1,0,.12,0a.53.53,0,0,1,.81-.06c.2.14.23.35.38.49s.12.1.19,0a.13.13,0,0,0,0-.11,1.7,1.7,0,0,0-.95-.86C47.15,58.37,47.08,58.84,46.9,59.05ZM20.84,61.31l.22,0c0-.47,0-.93,0-1.4,0-.09,0-.19-.15-.18s-.14.1-.14.2C20.79,60.38,20.81,60.85,20.84,61.31ZM11.6,60.9h.13a9.47,9.47,0,0,0,.07-1.43.12.12,0,0,0-.15-.13c-.12,0-.15.09-.14.19Q11.55,60.21,11.6,60.9ZM49,54.62a.61.61,0,0,0,.54-.46c0-.14-.1-.17-.22-.15s-.51.15-.56.45C48.75,54.6,48.89,54.61,49,54.62Zm-3.76,2.69c.42-.25.52-.51.26-.88,0-.06-.07-.15-.16-.13s-.1.1-.1.18C45.26,56.74,45.26,57,45.26,57.31Zm1.88,2.49c0-.39.16-.62.59-.57a.43.43,0,0,0-.63,0A.35.35,0,0,0,47.14,59.8Zm.81.49c-.21-.17-.44,0-.65,0-.06,0-.11.06-.09.13a.33.33,0,0,0,.07.11C47.49,60.37,47.83,60.67,48,60.29Z" transform="translate(-6.16 -35.43)"/><path d="M77.46,44.68c.05-.73.19-.83.85-.68a1.2,1.2,0,0,1,1.11,1.28c0,.39,0,.39.66.64-.11.69-.78.5-1.18.73a1.84,1.84,0,0,1-.38.12c.32.3.64.11.91,0a.55.55,0,0,1,.71.17c.22.25.5.45.72.72-2.73-.43-5.43-.81-8.13-1.16-1.88-.25-3.76-.55-5.65-.67-6.25-.4-12.51-.89-18.78-.77-.73,0-.91-.23-.65-1a9.82,9.82,0,0,1,.6-1.3A14.58,14.58,0,0,1,50,40.16a8.57,8.57,0,0,1,6.69-2.95,41.3,41.3,0,0,1,8.35.6,20.51,20.51,0,0,1,6.57,2.65,41.56,41.56,0,0,1,5.2,3.7Zm-13.09.59s0-.06,0-.07a38.88,38.88,0,0,0-3.18-7.27.38.38,0,0,0-.37-.2c-1.26-.06-2.53-.14-3.8-.09a10.14,10.14,0,0,0-4.62,1.17c-.31.17-.32.3-.18.6A27.75,27.75,0,0,1,54,44.21a.58.58,0,0,0,.65.52c2.11.06,4.23.16,6.34.31Zm13.19.78c.06-.71,0-.86-.28-1.1-1.62-1.26-3.24-2.51-5-3.63a19.51,19.51,0,0,0-6.71-2.91L63,37.87A.73.73,0,0,0,63,38a38.5,38.5,0,0,1,4.07,7.19.5.5,0,0,0,.49.33l6.57.8,2.66.31c-.31-.86-.71-1.62-.93-2.45A9.15,9.15,0,0,0,77.56,46.05ZM51.1,44.6v.09h2.17c.22,0,.3,0,.24-.28a31.26,31.26,0,0,0-1.71-4.87c-.07-.16-.14-.22-.29-.07a9.7,9.7,0,0,0-2.84,4.82c-.07.26,0,.32.27.31C49.65,44.59,50.37,44.6,51.1,44.6Zm27.06,1.23c0,.1,0,.27,0,.44s0,.2.18.22a.76.76,0,0,0,.83-.55,2.73,2.73,0,0,0,0-1,.87.87,0,0,0-.42-.63c-.15-.09-.3-.16-.36.12A3.81,3.81,0,0,0,78.16,45.83Z" transform="translate(-6.16 -35.43)"/><path d="M12.81,51.62a.87.87,0,0,1,1-.41A17.12,17.12,0,0,0,19.8,51a2.18,2.18,0,0,0,1.46-.89,6.73,6.73,0,0,0,1-1.67c.07-.19.22-.49-.14-.57s-.58-.08-.62.37-.18.91-.25,1.36a.41.41,0,0,1-.46.4h-7c-.35,0-.48-.13-.39-.48s.22-.93.34-1.39c.06-.24,0-.32-.26-.3a2.11,2.11,0,0,1-1.53-.41.74.74,0,0,0-.68-.09.56.56,0,0,1,.52-.28c3.64-.17,7.29-.23,10.93-.1.5,0,.61.21.42.68A10,10,0,0,1,21,50.92a2.5,2.5,0,0,1-1.43.77,15.73,15.73,0,0,1-6.34,0Z" transform="translate(-6.16 -35.43)"/><path d="M29.3,42.71c3.82-1,7.64-1.87,10.86-4.36-4.23-.23-8.45-.33-12.54.75.1-.15.1-.15.37-.24A20.94,20.94,0,0,1,32.9,38a47.55,47.55,0,0,1,8.24.08,15,15,0,0,1,2.64.46,2.59,2.59,0,0,1,.92.42c-1.2.91-2.4,1.78-3.65,2.56a17.37,17.37,0,0,1-2.62,1.37,1.29,1.29,0,0,1-.63.1c-2.74-.28-5.49-.23-8.24-.3Z" transform="translate(-6.16 -35.43)"/><path d="M8.1,52.54c-.93,0-.93,0-1.24.94a1.24,1.24,0,0,0-.13.55l16.66.39v0L20.13,55c-1.5.24-2.93.73-4.4,1.1a5.09,5.09,0,0,1-1.14.15c-2.21,0-4.42,0-6.62.11a2.52,2.52,0,0,0-1.61.57c-.14-1.59-.35-3.15.39-4.63.09-.18.13-.23.33-.14S7.73,52.41,8.1,52.54Z" transform="translate(-6.16 -35.43)"/><path d="M33.47,50.09c-.23-.15-.36-.24-.56-.1a11.69,11.69,0,0,1-5.56,1.55c-.83.06-1.66.16-2.49.24-.14,0-.29.07-.38-.08a.29.29,0,0,1,.09-.34c1.52-1.74,2.87-3.69,4.89-4.89a6.31,6.31,0,0,1,7-.09c.52.33.54.44.12.87a16.73,16.73,0,0,1-3.09,2.35C33.3,49.75,33.3,49.76,33.47,50.09Zm2.37-3.46c-1.75.12-3.41.23-5.07.36a3.12,3.12,0,0,0-1.58.59c-.16.12-.48.23-.41.43s.38.07.59.06c1.76-.08,3.48-.43,5.22-.64A1.72,1.72,0,0,0,35.84,46.64Zm-1.28,1.11c-2,.19-3.8.35-5.64.56a2.47,2.47,0,0,0-1.75,1.14L29,49.27c1.46-.11,2.85-.64,4.31-.77A2.07,2.07,0,0,0,34.56,47.75Zm-8.67,2.93c2.42-.23,4.74-.4,6.92-1.64-.15-.07-.18-.09-.2-.09-1.82.23-3.64.44-5.43.8A2,2,0,0,0,25.89,50.68Zm5-.22c-1.39.07-2.66.38-3.95.48-.45,0-.89.3-1.37.06-.15-.08-.33.12-.46.26s-.07.13,0,.16.26.06.38,0c1.18-.13,2.36-.25,3.54-.41A4.36,4.36,0,0,0,30.91,50.46Z" transform="translate(-6.16 -35.43)"/><path d="M68.1,50.6c0-.8,0-.81-.81-.83l-11.44-.3a.88.88,0,0,1-.44-.1L67.9,49c.08-.19-.12-.32,0-.51,0,.48.29.52.67.52,4.37,0,8.74.09,13.1.34.53,0,1.05.09,1.58.12s1.14.08,1.71.13l1.75.17,1.7.21,1.74.25a4.64,4.64,0,0,1,.58.13c-2.71-.26-5.41-.59-8.13-.7a1.21,1.21,0,0,0,1.29,1.16c.55,0,1.11,0,1.66.1a1,1,0,0,0,.73-.28.7.7,0,0,1-.74.44L83.43,51a.66.66,0,0,1-.67-.4c-.1-.25-.25-.29-.49-.3-4.5-.25-9-.37-13.51-.53-.77,0-.61-.09-.65.62v.19Z" transform="translate(-6.16 -35.43)"/><path d="M24,40.95,20.29,43l0,.11L24.84,43a14,14,0,0,0-2.9.77c2.39.27,4.76.58,7.13,1l-1.9-.11c-3.45-.24-6.91-.43-10.37-.35a20.79,20.79,0,0,0-5.36.63c-.21.06-.41.13-.61.21s-.23.12-.29-.06.1-.17.18-.21a10.45,10.45,0,0,1,3-.92,17.1,17.1,0,0,1,3.41-.29,6.14,6.14,0,0,0,3.1-.77c1.19-.63,2.39-1.23,3.58-1.84l.2-.07Z" transform="translate(-6.16 -35.43)"/><path d="M22,52.32a3.15,3.15,0,0,1-1.69.51,35.36,35.36,0,0,1-4.37.39,24.1,24.1,0,0,1-3.52-.46,2.34,2.34,0,0,1-2.2-2.07,17.41,17.41,0,0,1-.39-3c0-.26.07-.34.34-.33,1,0,1,0,1,1a5.52,5.52,0,0,0,.38,2.22A2.17,2.17,0,0,0,13,51.91a17.66,17.66,0,0,1,2.26.93,1.81,1.81,0,0,0,.85.14,45.41,45.41,0,0,0,4.7-.39C21.21,52.51,21.58,52.42,22,52.32Z" transform="translate(-6.16 -35.43)"/><path d="M6.2,59c.11-.52.37-.72.82-.71,2.1.07,4.2.11,6.29.2,3.52.15,7,.32,10.54.49a3.48,3.48,0,0,1,1.8.39c-1.84-.24-3.68-.26-5.51-.4-.85-.06-1.7-.08-2.54-.17a2.09,2.09,0,0,0-1.71.53,6.25,6.25,0,0,0-.53.44c-.49.56-1.14.44-1.77.44a.27.27,0,0,1-.27-.26c0-.21-.1-.42-.14-.63a.54.54,0,0,0-.54-.48l-5.73-.31C6.61,58.5,6.46,58.76,6.2,59Z" transform="translate(-6.16 -35.43)"/><path d="M26.72,60c-.08,0-.12,0-.13,0a3.36,3.36,0,0,0-2.76-1.22c-5.46-.36-10.92-.59-16.38-.65H7c-.34,0-.69,0-.84.52-.07-.61,0-.71.49-.71,3.85,0,7.69,0,11.53.26l6.1.35A3.13,3.13,0,0,1,26.72,60Z" transform="translate(-6.16 -35.43)"/><path d="M19.72,57.48c-1.36,0-2.72-.07-4.07,0-2.79.17-5.58,0-8.37,0a1.87,1.87,0,0,0-1.07.24c0-.48.09-.6.6-.61,2-.06,4-.08,5.93,0,2.22.06,4.44.15,6.67.23l.31,0Z" transform="translate(-6.16 -35.43)"/><path d="M9.15,47.54c0,1.3.11,2.58.13,3.87,0,.23-.13.36-.34.34a5.13,5.13,0,0,1-1.35-.3c-.1,0-.22-.07-.16-.23s.16-.11.27-.08l.94.25c.12,0,.28.17.34,0A.29.29,0,0,0,8.76,51c-.25-.07-.51-.12-.76-.18s-.36-.06-.31-.26.23,0,.35,0a3.83,3.83,0,0,1,.49.14c.11,0,.26.12.31,0a.28.28,0,0,0-.17-.35c-.19-.06-.39-.09-.58-.14s-.23,0-.17-.2.11-.18.25-.14a.67.67,0,0,0,.18.06c.12,0,.28.17.36,0s0-.31-.22-.4-.29,0-.26-.17.15-.1.26-.1.13-.07.11-.16C8.39,48.37,8.95,48,9.15,47.54Z" transform="translate(-6.16 -35.43)"/><path d="M71.62,47.62a7.4,7.4,0,0,0-2.45.22c.11.25.33.35.61.54a.86.86,0,0,1-.55-.22c-.18-.15-.38-.35-.32-.58s.37-.14.56-.15A7.13,7.13,0,0,1,71.62,47.62Z" transform="translate(-6.16 -35.43)"/><path d="M51.33,47c.22.32.55.32.84.42-.22.13-.47.07-.78-.18a.71.71,0,0,1-.32-.58c0-.1.1-.1.18-.1a13.91,13.91,0,0,1,3.15.15A6,6,0,0,0,51.33,47Z" transform="translate(-6.16 -35.43)"/><path d="M8.8,60.23c0,.19,0,.33-.26.3a.74.74,0,0,1-.68-.76c0-.34.27-.15.41-.17C8.79,59.51,8.77,59.9,8.8,60.23Z" transform="translate(-6.16 -35.43)"/><path d="M34.8,51.11c1.8,1,3.87,1,5.81,1.53C38.65,52.23,36.57,52.28,34.8,51.11Z" transform="translate(-6.16 -35.43)"/><path d="M69.78,48a5.56,5.56,0,0,1,2.12,0c-.09.41-.39.5-.73.53-.13,0-.25-.08-.23-.18.12-.66-.37-.3-.59-.36S70.07,48.18,69.78,48Z" transform="translate(-6.16 -35.43)"/><path d="M6.9,59.53c.41,0,.61.23.63.69,0,.19-.08.15-.19.15a.65.65,0,0,1-.74-.64C6.58,59.45,6.79,59.57,6.9,59.53Z" transform="translate(-6.16 -35.43)"/><path d="M93.54,52.49,92.5,51C93.14,50.95,93.54,51.5,93.54,52.49Z" transform="translate(-6.16 -35.43)"/><path d="M54.73,47a1.19,1.19,0,0,1-.78.53c-.18,0-.41-.09-.39-.15.13-.62-.42-.18-.56-.41A5.94,5.94,0,0,1,54.73,47Z" transform="translate(-6.16 -35.43)"/><path d="M25.48,58.34c-1.21-.22-2.43-.21-3.64-.37A13.93,13.93,0,0,1,25.48,58.34Z" transform="translate(-6.16 -35.43)"/><path d="M38,35.43c.05.21.11.43.16.64s0,.15-.09.18-.16-.05-.16-.15,0-.43,0-.64Z" transform="translate(-6.16 -35.43)"/><path d="M39.45,36.44a2.76,2.76,0,0,1-1.63.21Z" transform="translate(-6.16 -35.43)"/><path d="M51.45,50a2.63,2.63,0,0,1,1,1Z" transform="translate(-6.16 -35.43)"/><path d="M49.68,63.34c-.59.41-.21.85-.16,1.26s0,.95.7,1a2.78,2.78,0,0,1-1.55.16c-.18,0-.16-.16-.16-.28,0-.74-.06-1.47,0-2.21a4.21,4.21,0,0,0-.26-1.11c0-.15-.07-.3-.11-.45s-.11-.28.1-.34.25,0,.32.18l.65,1.33C49.27,63.06,49.35,63.29,49.68,63.34Z" transform="translate(-6.16 -35.43)"/><path d="M91.53,59.49c.27,0,.11-.22.12-.33a1.54,1.54,0,0,1,.16-.9,2.77,2.77,0,0,1,0,1.27c0,.07,0,.17-.12.15s-.22,0-.17-.2Z" transform="translate(-6.16 -35.43)"/><path d="M26.47,61.07c-1.27.2-1.87,0-2.34-.86C25,60.14,25.94,60,26.47,61.07Z" transform="translate(-6.16 -35.43)"/><path d="M23.72,61c-1.36.06-1.12.18-2-.79C22.55,59.86,23.07,60,23.72,61Z" transform="translate(-6.16 -35.43)"/><path d="M29.75,47.63a10.1,10.1,0,0,1,2.91-.41A10.8,10.8,0,0,1,29.75,47.63Z" transform="translate(-6.16 -35.43)"/><path d="M31.19,48.41A9.84,9.84,0,0,1,28,49C29,48.37,30.14,48.63,31.19,48.41Z" transform="translate(-6.16 -35.43)"/><path d="M29.78,49.64a9.55,9.55,0,0,1-3.17.68c.23-.35.6-.47,1.51-.53C28.68,49.75,29.23,49.69,29.78,49.64Z" transform="translate(-6.16 -35.43)"/></svg>