<svg id="Layer_1" data-name="Layer 1" xmlns="http://www.w3.org/2000/svg" viewBox="0 0 1169.3 180.4"><defs><style>.cls-1{fill:#380f4f;}.cls-2{fill:#fefefe;}.cls-3{fill:#5c3b6f;}.cls-4{fill:#b3a3bc;}.cls-5{fill:#876f95;}</style></defs><title>ellipse2</title><path class="cls-1" d="M1540,631H383c-2-2.4-.79-4.74.24-7a113.08,113.08,0,0,1,19.68-29.32c19.36-21.13,42.56-37.12,67.56-50.75C513,520.76,558.36,505,604.83,492.16c44.64-12.36,90-21.12,135.82-27.81,24.18-3.53,48.46-6.24,72.8-8.55,25.52-2.43,51.05-3.51,76.66-3.92,7.48-.12,15-.21,22.44-.37H934c7-.32,14,.65,21-.5h13c6.94,1.13,13.93.2,20.89.5h21.44c22.79,0,45.59.34,68.32,1.72,25.54,1.56,51,4.33,76.42,7.5,33.53,4.19,66.87,9.51,99.95,16.34,52.76,10.88,104.54,25.18,154.3,46.1,32.82,13.8,64.29,30.13,91.69,53.18,15.6,13.12,29.73,27.76,38.33,46.76C1540.46,625.63,1542.25,628.16,1540,631Z" transform="translate(-376.85 -450.91)"/><path class="cls-2" d="M911.92,451.84C865.78,453.15,819.79,456.41,774,462c-80.74,9.9-160.2,25.52-236.68,54-38.14,14.21-74.8,31.4-107.26,56.42-18.91,14.58-35.4,31.33-45.53,53.42-.73,1.6-2,3.11-1.51,5.11-5.13,1.13-6.17-.87-6.15-6q.35-85,.05-170c0-3.43.67-4.1,4.1-4.09q265.5.16,531,.09Q913,451.52,911.92,451.84Z" transform="translate(-376.85 -450.91)"/><path class="cls-2" d="M1540,631c-.84-6.1-4.26-11.08-7.33-16.11-12.29-20.13-29.48-35.52-48.52-49-32.58-23-68.61-39.19-105.91-52.67C1327.62,495,1275.49,482.4,1222.56,473c-43-7.67-86.21-13-129.67-16.64-27.22-2.26-54.49-3.8-81.8-4.47q-1.08-.32-.08-.84,265.07,0,530.13-.09c3.8,0,5,.41,5,4.72q-.29,84.69,0,169.38C1546.17,630.15,1545.12,632.12,1540,631Z" transform="translate(-376.85 -450.91)"/><path class="cls-3" d="M955,451c-7,2-14.06.69-21.1.89q-.49-.35-.29-.63A.52.52,0,0,1,934,451Z" transform="translate(-376.85 -450.91)"/><path class="cls-3" d="M989.1,451.89c-7-.2-14.14,1.12-21.1-.89h21q.56.24.42.55C989.32,451.78,989.21,451.89,989.1,451.89Z" transform="translate(-376.85 -450.91)"/><path class="cls-4" d="M911.92,451.84A7.63,7.63,0,0,0,912,451h12q1,.52-.08.83Z" transform="translate(-376.85 -450.91)"/><path class="cls-4" d="M1011,451a7.45,7.45,0,0,0,.08.84h-12q-1.08-.32-.08-.83Z" transform="translate(-376.85 -450.91)"/><path class="cls-5" d="M923.92,451.83q0-.42.08-.83h10a4.27,4.27,0,0,1-.1.89Z" transform="translate(-376.85 -450.91)"/><path class="cls-5" d="M999,451q0,.42.08.83l-10,.05a4.39,4.39,0,0,1-.1-.89Z" transform="translate(-376.85 -450.91)"/></svg>