<svg id="Layer_1" data-name="Layer 1" xmlns="http://www.w3.org/2000/svg" viewBox="0 0 574.63 254.63"><defs><style>.cls-1{fill:#440e62;}.cls-2{fill:#fefefe;}.cls-3{fill:#fdfdfd;}.cls-4{fill:#6d4384;}.cls-5{fill:#673c7f;}</style></defs><title>ellipse3</title><path class="cls-1" d="M1248,599v28c-1.56,10.12-1.26,20.57-5.13,30.29-1.52,3.8-2,8.2-5.87,10.71H685a11.51,11.51,0,0,1-4-5.53c-4.38-10.62-5.9-21.77-6.46-33.11,0-.82.12-1.67-.5-2.36V598c1.6-9.43,1.58-19,4.55-28.36,6.94-21.76,18.24-41,32.81-58.34,23-27.38,51.67-47.32,83.43-63,33.53-16.51,69.13-26.72,106.06-32,10.48-1.51,21.18-1.53,31.8-1.85,1.78-.05,3.65.55,5.35-.48h5a46.33,46.33,0,0,0,15,0h5a39.79,39.79,0,0,0,14,0h7c7.88,1.06,15.84,1,23.74,1.35,17.91.68,35.25,4.48,52.5,8.8,40.77,10.2,78.66,26.76,112.56,51.87,23.8,17.63,43.85,38.72,58.23,64.8,9.66,17.52,16.45,35.95,16.47,56.32A2.49,2.49,0,0,0,1248,599Z" transform="translate(-673.47 -413.9)"/><path class="cls-2" d="M938,414c-5.54,1.83-11.36,1.36-17,1.95C862.65,422,807.9,438.41,759,471.65c-32,21.74-57.86,48.95-73.39,85a146.84,146.84,0,0,0-10.58,38.85c-.12.92.22,2.07-1.06,2.51q0-90-.1-180c0-3.42.67-4.1,4.1-4.1Q808,414.09,938,414Z" transform="translate(-673.47 -413.9)"/><path class="cls-2" d="M1248,599c-2-3.9-1.64-8.27-2.46-12.4-7.53-38-27.74-68.41-55.94-93.94-38.55-34.89-84.47-55.42-134.47-67.64a374.3,374.3,0,0,0-68.53-10.12c-.92-.05-2.05.32-2.59-.91q130,0,260-.1c3.42,0,4.1.67,4.1,4.1Q1247.9,508.5,1248,599Z" transform="translate(-673.47 -413.9)"/><path class="cls-3" d="M674,627c2.12,3.51,1.75,7.58,2.43,11.39,1.84,10.18,5.52,19.8,8.57,29.61-3.67,0-8.76,1.43-10.6-.4s-.4-6.93-.4-10.6Z" transform="translate(-673.47 -413.9)"/><path class="cls-3" d="M1237,668c5.09-13.29,7.91-27.18,11-41,0,12.83-.07,25.67.06,38.5,0,2.15-.4,2.74-2.57,2.56C1242.68,667.82,1239.83,668,1237,668Z" transform="translate(-673.47 -413.9)"/><path class="cls-4" d="M958,414c-5,1.2-10,2-15,0Z" transform="translate(-673.47 -413.9)"/><path class="cls-5" d="M977,414c-4.67,1.82-9.33,1.48-14,0Z" transform="translate(-673.47 -413.9)"/></svg>